<svg aria-hidden="true" style="position: absolute; width: 0; height: 0; overflow: hidden;" version="1.1" xmlns="http://www.w3.org/2000/svg" xmlns:xlink="http://www.w3.org/1999/xlink">
<defs>
<symbol id="logo-footer" viewBox="0 0 32 32">
<path fill="#ff6e30" style="fill: var(--color1, #ff6e30)" d="M6.737 0h18.526c3.721 0 6.737 3.016 6.737 6.737v18.526c0 3.721-3.016 6.737-6.737 6.737h-18.526c-3.721 0-6.737-3.016-6.737-6.737v-18.526c0-3.721 3.016-6.737 6.737-6.737z"></path>
<path fill="#fff" style="fill: var(--color2, #fff)" d="M16.812 10.472c-0.28 0-0.552 0.035-0.812 0.1 0.167-1.51 0.77-2.889 1.681-4.008 3.622 0.429 6.431 3.511 6.431 7.249v5.328c-0.145 0.008-0.292 0.012-0.44 0.012-2.897 0-5.423-1.596-6.744-3.959h3.224v-1.381c0-1.845-1.496-3.341-3.341-3.341z"></path>
<path fill="#fff" style="fill: var(--color2, #fff)" d="M7.795 14.274c0-4.485 3.636-8.12 8.12-8.12 2.242 0 4.273 0.909 5.742 2.378-1.355-1.355-3.186-2.233-5.22-2.362-1.369 1.515-2.202 3.522-2.202 5.724 0 0.164 0.005 0.327 0.014 0.489-0.524 0.462-0.854 1.138-0.854 1.891v0.56l1.36 0c1.198 3.268 4.337 5.6 8.021 5.6 0.428 0 0.849-0.032 1.26-0.092v3.452h-5.6v-3.36h-5.040v3.36h-5.6v-9.521z"></path>
</symbol>
<symbol id="facebook" viewBox="0 0 32 32">
<path fill="#fff" style="fill: var(--color2, #fff)" opacity="0.78" d="M17.863 27.996v-10.928h3.687l0.548-4.279h-4.235v-2.725c0-1.235 0.344-2.080 2.116-2.080h2.245v-3.815c-1.093-0.117-2.191-0.174-3.289-0.169-3.259 0-5.496 1.989-5.496 5.641v3.14h-3.663v4.279h3.671v10.936h4.416z"></path>
</symbol>
<symbol id="instagram" viewBox="0 0 32 32">
<path fill="#fff" style="fill: var(--color2, #fff)" opacity="0.78" d="M15.999 9.836c-1.635 0-3.203 0.65-4.36 1.806s-1.806 2.724-1.806 4.36c0 1.635 0.65 3.203 1.806 4.36s2.724 1.806 4.36 1.806 3.203-0.649 4.36-1.806c1.156-1.156 1.806-2.724 1.806-4.36s-0.65-3.203-1.806-4.36c-1.156-1.156-2.724-1.806-4.36-1.806zM15.999 20.005c-1.062 0-2.081-0.422-2.832-1.173s-1.173-1.77-1.173-2.832c0-1.062 0.422-2.081 1.173-2.832s1.77-1.173 2.832-1.173 2.081 0.422 2.832 1.173c0.751 0.751 1.173 1.77 1.173 2.832s-0.422 2.081-1.173 2.832c-0.751 0.751-1.77 1.173-2.832 1.173z"></path>
<path fill="#fff" style="fill: var(--color2, #fff)" opacity="0.78" d="M22.408 11.047c0.794 0 1.437-0.644 1.437-1.437s-0.644-1.437-1.437-1.437-1.437 0.644-1.437 1.437c0 0.794 0.644 1.437 1.437 1.437z"></path>
<path fill="#fff" style="fill: var(--color2, #fff)" opacity="0.78" d="M27.377 8.148c-0.309-0.797-0.78-1.521-1.385-2.125s-1.329-1.076-2.126-1.384c-0.933-0.35-1.918-0.54-2.915-0.56-1.284-0.056-1.691-0.072-4.947-0.072s-3.673 0-4.947 0.072c-0.995 0.019-1.98 0.209-2.912 0.56-0.797 0.308-1.522 0.779-2.126 1.384s-1.076 1.328-1.384 2.126c-0.35 0.933-0.539 1.918-0.559 2.915-0.057 1.283-0.075 1.689-0.075 4.947 0 3.256 0 3.671 0.075 4.947 0.020 0.997 0.208 1.981 0.559 2.916 0.309 0.797 0.781 1.521 1.386 2.125s1.329 1.076 2.126 1.384c0.93 0.364 1.915 0.567 2.913 0.6 1.284 0.056 1.691 0.073 4.947 0.073s3.673 0 4.947-0.073c0.996-0.020 1.982-0.209 2.915-0.559 0.797-0.309 1.521-0.781 2.125-1.385s1.076-1.328 1.385-2.125c0.351-0.933 0.539-1.917 0.559-2.915 0.057-1.283 0.075-1.689 0.075-4.947s0-3.671-0.075-4.947c-0.016-1.010-0.205-2.010-0.561-2.956zM25.753 20.857c-0.009 0.768-0.149 1.53-0.415 2.251-0.2 0.519-0.507 0.989-0.9 1.382s-0.864 0.699-1.383 0.899c-0.713 0.265-1.466 0.405-2.227 0.415-1.267 0.059-1.624 0.073-4.872 0.073-3.251 0-3.583 0-4.873-0.073-0.76-0.009-1.513-0.149-2.225-0.415-0.52-0.199-0.993-0.504-1.388-0.897s-0.703-0.864-0.904-1.384c-0.262-0.713-0.402-1.465-0.415-2.225-0.057-1.267-0.071-1.624-0.071-4.872 0-3.249 0-3.581 0.071-4.873 0.009-0.768 0.149-1.529 0.415-2.249 0.407-1.052 1.24-1.88 2.292-2.283 0.713-0.264 1.465-0.404 2.225-0.415 1.268-0.057 1.624-0.073 4.873-0.073s3.583 0 4.872 0.073c0.761 0.009 1.514 0.149 2.227 0.415 0.519 0.2 0.989 0.507 1.383 0.9s0.7 0.864 0.9 1.383c0.262 0.713 0.402 1.466 0.415 2.225 0.057 1.268 0.072 1.624 0.072 4.873 0 3.248 0 3.597-0.057 4.872h-0.015v-0.001z"></path>
</symbol>
<symbol id="twitter" viewBox="0 0 32 32">
<path fill="#fff" style="fill: var(--color2, #fff)" opacity="0.78" d="M26.177 10.663c0.017 0.233 0.017 0.465 0.017 0.697 0 7.1-5.404 15.281-15.28 15.281-3.043 0-5.869-0.881-8.248-2.412 0.432 0.049 0.848 0.067 1.297 0.067 2.417 0.006 4.766-0.802 6.668-2.295-1.121-0.020-2.207-0.39-3.108-1.058s-1.57-1.6-1.915-2.666c0.332 0.049 0.665 0.083 1.015 0.083 0.481 0 0.965-0.067 1.415-0.183-1.216-0.246-2.31-0.905-3.095-1.866s-1.213-2.164-1.212-3.405v-0.067c0.716 0.399 1.547 0.648 2.427 0.681-0.737-0.49-1.342-1.155-1.76-1.935s-0.636-1.652-0.635-2.537c0-0.997 0.265-1.912 0.731-2.709 1.35 1.66 3.033 3.018 4.94 3.986s3.998 1.525 6.134 1.634c-0.083-0.4-0.133-0.815-0.133-1.231-0-0.705 0.138-1.404 0.408-2.056s0.665-1.244 1.164-1.743 1.091-0.894 1.743-1.164c0.652-0.27 1.35-0.408 2.056-0.408 1.547 0 2.943 0.648 3.924 1.696 1.202-0.232 2.355-0.671 3.408-1.297-0.401 1.241-1.24 2.293-2.361 2.96 1.066-0.122 2.109-0.402 3.092-0.832-0.735 1.071-1.645 2.010-2.692 2.777z"></path>
</symbol>
<symbol id="logotype" viewBox="0 0 29 32">
<path fill="#fff" style="fill: var(--color2, #fff)" d="M15.948 7.907c-0.484 0-0.954 0.060-1.403 0.172 0.289-2.609 1.331-4.989 2.904-6.923 6.256 0.741 11.108 6.065 11.108 12.521v9.202c-0.251 0.014-0.504 0.021-0.759 0.021-5.005 0-9.368-2.757-11.649-6.839h5.569v-2.385c0-3.187-2.583-5.77-5.77-5.77z"></path>
<path fill="#fff" style="fill: var(--color2, #fff)" d="M0.373 14.474c0-7.747 6.28-14.026 14.026-14.026 3.873 0 7.38 1.57 9.918 4.108-2.34-2.34-5.503-3.857-9.017-4.080-2.364 2.616-3.803 6.083-3.803 9.887 0 0.284 0.008 0.566 0.024 0.845-0.904 0.798-1.475 1.965-1.475 3.266v0.967l2.348 0c2.070 5.645 7.492 9.673 13.854 9.673 0.739 0 1.466-0.054 2.176-0.159v5.963h-9.673v-5.804h-8.706v5.804h-9.673v-16.445z"></path>
</symbol>
<symbol id="like" viewBox="0 0 32 32">
<path fill="#fff" style="fill: var(--color2, #fff)" opacity="0.38" d="M22.667 6c-2.8 0-5.267 1.4-6.667 3.6-1.4-2.2-3.867-3.6-6.667-3.6-4.4 0-8 3.6-8 8 0 7.933 14.667 16 14.667 16s14.667-8 14.667-16c0-4.4-3.6-8-8-8z"></path>
</symbol>
<symbol id="sketch" viewBox="0 0 36 32">
<path fill="#fdb300" style="fill: var(--color3, #fdb300)" d="M17.965 0l-10.126 1.051-7.839 10.333 17.965 20.541 17.965-20.541-7.839-10.333-10.126-1.051z"></path>
<path fill="#eb6c00" style="fill: var(--color4, #eb6c00)" d="M0 11.384l17.965 20.541-10.688-20.541h-7.277z"></path>
<path fill="#eb6c00" style="fill: var(--color4, #eb6c00)" d="M28.653 11.384l-10.688 20.541 17.965-20.541h-7.277z"></path>
<path fill="#fdad00" style="fill: var(--color5, #fdad00)" d="M7.277 11.384l10.688 20.541 10.688-20.541h-21.377z"></path>
<path fill="#fdd231" style="fill: var(--color6, #fdd231)" d="M7.839 1.051l-0.563 10.333 10.688-11.384-10.126 1.051z"></path>
<path fill="#fdd231" style="fill: var(--color6, #fdd231)" d="M28.653 11.384l-0.562-10.333-10.126-1.051 10.688 11.384z"></path>
<path fill="#fdad00" style="fill: var(--color5, #fdad00)" d="M28.653 11.384h7.277l-7.839-10.333 0.563 10.333z"></path>
<path fill="#fdad00" style="fill: var(--color5, #fdad00)" d="M0 11.384h7.277l0.563-10.333-7.839 10.333z"></path>
<path fill="#feeeb7" style="fill: var(--color7, #feeeb7)" d="M17.965 0l-10.688 11.384h21.377l-10.688-11.384z"></path>
</symbol>
<symbol id="visual-studio-code" viewBox="0 0 33 32">
<path fill="#0065a9" style="fill: var(--color8, #0065a9)" opacity="0.78" d="M31.744 3.377l-6.776-3.179c-0.383-0.18-0.813-0.239-1.232-0.169s-0.805 0.264-1.105 0.556l-22.183 19.708c-0.597 0.53-0.596 1.445 0.002 1.975l1.812 1.605c0.237 0.21 0.541 0.332 0.861 0.346s0.634-0.082 0.889-0.27l26.713-19.747c0.896-0.662 2.183-0.040 2.183 1.056v-0.077c0-0.377-0.109-0.746-0.315-1.066s-0.5-0.575-0.849-0.739z"></path>
<path fill="#007acc" style="fill: var(--color9, #007acc)" opacity="0.78" d="M31.744 28.503l-6.776 3.179c-0.383 0.179-0.813 0.239-1.232 0.169s-0.805-0.264-1.105-0.556l-22.183-19.708c-0.597-0.53-0.596-1.445 0.002-1.975l1.812-1.605c0.237-0.21 0.541-0.332 0.861-0.346s0.634 0.082 0.889 0.27l26.713 19.747c0.896 0.662 2.183 0.040 2.183-1.057v0.077c0 0.377-0.109 0.746-0.315 1.066s-0.5 0.575-0.849 0.739z"></path>
<path fill="#1f9cf0" style="fill: var(--color10, #1f9cf0)" opacity="0.78" d="M24.946 31.685c-0.383 0.179-0.813 0.238-1.232 0.169s-0.805-0.264-1.105-0.557c0.758 0.739 2.056 0.216 2.056-0.83v-29.051c0-1.045-1.297-1.569-2.056-0.83 0.3-0.293 0.687-0.487 1.105-0.557s0.849-0.010 1.232 0.169l6.775 3.175c0.349 0.163 0.643 0.42 0.849 0.739s0.315 0.689 0.315 1.066v21.526c0 0.77-0.453 1.471-1.165 1.805l-6.775 3.175z"></path>
<path fill="#000" style="fill: var(--color11, #000)" opacity="0.195" d="M23.321 31.744c0.262 0.099 0.542 0.145 0.822 0.135s0.556-0.077 0.809-0.196l6.771-3.175c0.349-0.164 0.643-0.42 0.849-0.739s0.315-0.689 0.315-1.066v-21.526c0-0.377-0.109-0.747-0.315-1.066s-0.5-0.575-0.849-0.739l-6.771-3.175c-0.383-0.179-0.813-0.238-1.231-0.169s-0.805 0.264-1.105 0.557l-12.962 11.523-5.646-4.176c-0.255-0.188-0.569-0.284-0.888-0.27s-0.624 0.136-0.86 0.346l-1.811 1.605c-0.597 0.529-0.598 1.445-0.002 1.975l4.897 4.353-4.897 4.353c-0.596 0.53-0.596 1.445 0.002 1.975l1.811 1.605c0.236 0.21 0.541 0.332 0.86 0.346s0.634-0.082 0.889-0.27l5.646-4.176 12.962 11.523c0.2 0.196 0.44 0.348 0.705 0.449zM24.671 8.665l-9.835 7.275 9.835 7.275v-14.55z"></path>
</symbol>
<symbol id="zeplin" viewBox="0 0 41 32">
<path fill="#fdbd39" style="fill: var(--color12, #fdbd39)" d="M6.277 22.063l-2.131 0.765-0.114 6.23 7.375-2.648c-2.53-0.835-4.377-2.305-5.13-4.347z"></path>
<path fill="#f69833" style="fill: var(--color13, #f69833)" d="M7.392 15.473l-7.392 2.655 4.147 4.7 2.131-0.765c-0.751-2.036-0.288-4.338 1.115-6.59z"></path>
<path fill="#fecf33" style="fill: var(--color14, #fecf33)" d="M19.833 6.484c-9.414 3.38-15.482 10.355-13.555 15.579l34.090-12.241c-1.927-5.224-11.121-6.719-20.534-3.338z"></path>
<path fill="#ee6723" style="fill: var(--color15, #ee6723)" d="M26.812 25.401c9.414-3.38 15.494-10.325 13.555-15.579l-34.090 12.241c1.939 5.255 11.121 6.719 20.534 3.339z"></path>
<path fill="#f69833" style="fill: var(--color13, #f69833)" d="M40.367 9.822l-34.090 12.241c0.668 1.809 3.213 2.701 6.785 2.701 3.482 0 7.939-0.847 12.586-2.515 9.414-3.38 16.037-8.853 14.718-12.426z"></path>
<path fill="#fdbd39" style="fill: var(--color12, #fdbd39)" d="M33.582 7.121c-3.482 0-7.939 0.847-12.586 2.515-9.414 3.38-16.037 8.853-14.718 12.426l34.090-12.241c-0.667-1.809-3.213-2.701-6.785-2.701z"></path>
<path fill="#ee6723" style="fill: var(--color15, #ee6723)" d="M31.7 29.388h-0c-1.003 0-2.483-0.891-4.398-2.647-2.266-2.078-4.862-5.121-7.309-8.569s-4.458-6.895-5.662-9.707c-1.312-3.064-1.499-4.948-0.556-5.599 0.207-0.143 0.456-0.215 0.741-0.215 0.767 0 2.262 0.561 5.026 3.236l0.060 0.058-0.008 0.083c-0.019 0.192-0.036 0.386-0.052 0.576l-0.031 0.378-0.271-0.269c-2.978-2.949-4.289-3.267-4.714-3.267-0.121 0-0.218 0.024-0.287 0.072-0.409 0.283-0.435 1.666 0.837 4.636 1.183 2.761 3.164 6.156 5.58 9.56s4.972 6.402 7.197 8.443c2.4 2.2 3.481 2.438 3.835 2.438 0.122 0 0.221-0.026 0.295-0.077 0.432-0.298 0.432-1.78-0.986-4.977l-0.065-0.147 0.143-0.077c0.143-0.077 0.28-0.152 0.41-0.224l0.171-0.095 0.079 0.177c1.006 2.265 1.946 5.144 0.713 5.996-0.208 0.143-0.458 0.216-0.745 0.216zM31.699 29.039v0z"></path>
<path fill="#ee6723" style="fill: var(--color15, #ee6723)" d="M27.040 25.306l-0.014 0.174c-0.238 2.895-0.865 6.375-2.498 6.515-0.033 0.003-0.067 0.004-0.101 0.004-1.11 0-2.16-1.563-3.121-4.646-0.909-2.917-1.615-6.833-1.987-11.027s-0.366-8.171 0.016-11.199c0.416-3.301 1.209-5.024 2.356-5.123 0.034-0.003 0.069-0.005 0.104-0.005 0.805 0 2.019 0.896 3.261 5.070l-0.811 0.154c-0.415-1.395-0.867-2.529-1.316-3.309-0.415-0.721-0.819-1.118-1.137-1.118-0.010 0-0.021 0-0.031 0.001-0.497 0.043-1.221 1.228-1.625 4.428-0.375 2.975-0.38 6.892-0.013 11.032s1.061 7.997 1.954 10.862c0.4 1.283 0.839 2.34 1.268 3.058 0.396 0.662 0.78 1.026 1.080 1.026 0.010 0 0.021-0 0.031-0.001 0.476-0.041 1.372-1.274 1.749-5.614l0.834-0.281z"></path>
</symbol>
<symbol id="figma" viewBox="0 0 32 32">
<path fill="#19bcfe" style="fill: var(--color16, #19bcfe)" opacity="0.78" d="M21.333 21.333c2.945 0 5.333-2.388 5.333-5.333s-2.388-5.333-5.333-5.333c-2.946 0-5.333 2.388-5.333 5.333s2.388 5.333 5.333 5.333z"></path>
<path fill="#09cf83" style="fill: var(--color17, #09cf83)" opacity="0.78" d="M10.667 32c1.415 0 2.771-0.562 3.771-1.562s1.562-2.357 1.562-3.771v-5.333h-5.333c-1.415 0-2.771 0.562-3.771 1.562s-1.562 2.357-1.562 3.771c0 1.415 0.562 2.771 1.562 3.771s2.357 1.562 3.771 1.562z"></path>
<path fill="#a259ff" style="fill: var(--color18, #a259ff)" opacity="0.78" d="M10.667 21.333h5.333v-10.667h-5.333c-1.415 0-2.771 0.562-3.771 1.562s-1.562 2.357-1.562 3.771c0 1.415 0.562 2.771 1.562 3.771s2.357 1.562 3.771 1.562z"></path>
<path fill="#f24e1e" style="fill: var(--color19, #f24e1e)" opacity="0.78" d="M10.667 10.667h5.333v-10.667h-5.333c-1.415 0-2.771 0.562-3.771 1.562s-1.562 2.357-1.562 3.771c0 1.414 0.562 2.771 1.562 3.771s2.357 1.562 3.771 1.562z"></path>
<path fill="#ff7262" style="fill: var(--color20, #ff7262)" opacity="0.78" d="M21.333 10.667h-5.333v-10.667h5.333c1.414 0 2.771 0.562 3.771 1.562s1.562 2.357 1.562 3.771c0 1.414-0.562 2.771-1.562 3.771s-2.357 1.562-3.771 1.562z"></path>
</symbol>
<symbol id="notion" viewBox="0 0 32 32">
<path fill="#fff" style="fill: var(--color2, #fff)" opacity="0.78" d="M5.716 29.218l-3.439-4.285c-0.828-1.031-1.277-2.299-1.277-3.603v-15.515c0-1.954 1.564-3.576 3.581-3.714l15.951-1.089c1.159-0.079 2.311 0.229 3.263 0.873l5.605 3.789c1.003 0.678 1.601 1.787 1.601 2.97v17.639c0 1.913-1.537 3.496-3.512 3.618l-17.704 1.090c-1.576 0.097-3.099-0.567-4.067-1.773z"></path>
<path fill="#000" style="fill: var(--color11, #000)" opacity="0.78" d="M11.248 13.579v-0.203c0-0.515 0.412-0.942 0.944-0.977l3.871-0.258 5.354 7.884v-6.919l-1.378-0.184v-0.097c0-0.521 0.422-0.951 0.96-0.978l3.523-0.18v0.507c0 0.238-0.177 0.441-0.419 0.482l-0.848 0.143v11.206l-1.064 0.366c-0.889 0.306-1.878-0.022-2.387-0.789l-5.198-7.843v7.486l1.6 0.306-0.022 0.148c-0.070 0.465-0.471 0.816-0.957 0.838l-3.979 0.177c-0.053-0.5 0.322-0.947 0.839-1.001l0.523-0.055v-9.981l-1.362-0.077z"></path>
<path fill="#000" style="fill: var(--color11, #000)" opacity="0.78" d="M20.675 2.967l-15.951 1.089c-0.955 0.065-1.696 0.833-1.696 1.759v15.515c0 0.87 0.299 1.715 0.851 2.402l3.439 4.285c0.556 0.693 1.431 1.074 2.337 1.018l17.704-1.090c0.907-0.056 1.614-0.783 1.614-1.662v-17.639c0-0.544-0.275-1.053-0.735-1.365l-5.605-3.789c-0.571-0.386-1.262-0.571-1.958-0.523zM5.515 6.057c-0.222-0.164-0.116-0.506 0.162-0.526l15.105-1.083c0.481-0.035 0.959 0.098 1.349 0.374l3.031 2.147c0.115 0.082 0.061 0.258-0.081 0.265l-15.996 0.87c-0.484 0.026-0.962-0.116-1.347-0.401l-2.223-1.646zM8.334 10.831c0-0.52 0.42-0.949 0.957-0.978l16.913-0.921c0.523-0.028 0.964 0.374 0.964 0.88v15.273c0 0.519-0.418 0.948-0.954 0.978l-16.806 0.956c-0.582 0.033-1.073-0.414-1.073-0.978v-15.211z"></path>
</symbol>
<symbol id="grommet-icons_slack" viewBox="0 0 33 32">
<path fill="#e01e5a" style="fill: var(--color21, #e01e5a)" opacity="0.78" d="M6.836 20.11c0 0.439-0.088 0.874-0.259 1.28s-0.422 0.774-0.738 1.085c-0.316 0.311-0.692 0.557-1.105 0.724s-0.856 0.254-1.304 0.253c-0.447 0-0.89-0.086-1.303-0.254s-0.788-0.414-1.104-0.725c-0.316-0.31-0.567-0.679-0.738-1.085s-0.259-0.84-0.258-1.279c-0-0.439 0.087-0.874 0.258-1.28s0.422-0.774 0.738-1.085c0.316-0.311 0.692-0.557 1.105-0.725s0.856-0.254 1.303-0.254h3.406v3.343h-0.001zM8.538 20.11c-0-0.439 0.087-0.874 0.258-1.28s0.422-0.774 0.738-1.085c0.316-0.311 0.692-0.557 1.105-0.725s0.856-0.254 1.303-0.254c0.447-0 0.89 0.086 1.303 0.254s0.789 0.414 1.105 0.725c0.316 0.31 0.567 0.679 0.738 1.085s0.259 0.841 0.258 1.28v8.358c0 0.439-0.087 0.874-0.258 1.28s-0.422 0.774-0.738 1.085-0.692 0.557-1.105 0.725c-0.413 0.168-0.856 0.254-1.303 0.254s-0.89-0.086-1.303-0.254-0.789-0.414-1.105-0.725c-0.316-0.31-0.567-0.679-0.738-1.085s-0.259-0.841-0.258-1.28v-8.358z"></path>
<path fill="#36c5f0" style="fill: var(--color22, #36c5f0)" opacity="0.78" d="M11.942 6.687c-0.447 0-0.89-0.086-1.304-0.254s-0.789-0.414-1.105-0.725c-0.316-0.311-0.567-0.679-0.738-1.085s-0.259-0.841-0.258-1.28c-0-0.439 0.088-0.874 0.258-1.28s0.422-0.774 0.738-1.085c0.316-0.31 0.692-0.557 1.105-0.725s0.856-0.254 1.303-0.254c0.447-0 0.89 0.086 1.303 0.254s0.789 0.414 1.105 0.725c0.316 0.31 0.567 0.679 0.738 1.085s0.259 0.841 0.258 1.28v3.345l-3.404-0.001zM11.942 8.383c0.447-0 0.89 0.086 1.303 0.254s0.789 0.414 1.105 0.725c0.316 0.31 0.567 0.679 0.738 1.085s0.259 0.841 0.258 1.28c0 0.439-0.087 0.874-0.258 1.28s-0.422 0.774-0.738 1.085c-0.316 0.31-0.692 0.557-1.105 0.725s-0.856 0.254-1.303 0.254h-8.538c-0.447 0-0.89-0.086-1.303-0.254s-0.788-0.414-1.105-0.724c-0.316-0.31-0.567-0.679-0.738-1.084s-0.259-0.84-0.259-1.279c-0-0.439 0.087-0.874 0.258-1.28s0.422-0.774 0.738-1.085 0.692-0.557 1.105-0.725c0.413-0.168 0.856-0.254 1.303-0.254l8.538-0.001z"></path>
<path fill="#2eb67d" style="fill: var(--color23, #2eb67d)" opacity="0.78" d="M25.587 11.726c-0-0.439 0.087-0.874 0.259-1.28s0.422-0.774 0.738-1.085c0.316-0.31 0.692-0.557 1.105-0.724s0.856-0.254 1.304-0.253c0.447-0 0.89 0.086 1.303 0.254s0.789 0.414 1.105 0.725c0.316 0.31 0.567 0.679 0.738 1.085s0.259 0.841 0.258 1.28c0 0.439-0.087 0.874-0.258 1.28s-0.422 0.774-0.738 1.085c-0.316 0.31-0.692 0.557-1.105 0.725s-0.856 0.254-1.303 0.254h-3.406v-3.343zM23.885 11.726c0 0.439-0.087 0.874-0.258 1.28s-0.422 0.774-0.738 1.085c-0.316 0.31-0.692 0.557-1.105 0.725s-0.856 0.254-1.303 0.254c-0.447 0.001-0.89-0.086-1.304-0.253s-0.789-0.414-1.105-0.724c-0.316-0.31-0.567-0.679-0.738-1.085s-0.259-0.841-0.259-1.28v-8.383c-0-0.439 0.087-0.874 0.259-1.28s0.422-0.774 0.738-1.085c0.316-0.31 0.692-0.557 1.105-0.724s0.856-0.254 1.304-0.253c0.447-0 0.89 0.086 1.303 0.254s0.789 0.414 1.105 0.725c0.316 0.31 0.567 0.679 0.738 1.085s0.259 0.841 0.258 1.28v8.383z"></path>
<path fill="#ecb22e" style="fill: var(--color24, #ecb22e)" opacity="0.78" d="M20.48 25.124c0.447-0 0.89 0.086 1.303 0.254s0.789 0.414 1.105 0.725c0.316 0.311 0.567 0.679 0.738 1.085s0.259 0.841 0.258 1.28c0.001 0.439-0.087 0.874-0.258 1.28s-0.422 0.775-0.738 1.085c-0.316 0.311-0.692 0.557-1.105 0.725s-0.856 0.254-1.304 0.254c-0.447 0-0.89-0.086-1.304-0.254s-0.789-0.414-1.105-0.725c-0.316-0.311-0.567-0.679-0.738-1.085s-0.259-0.841-0.258-1.28v-3.343h3.404zM20.48 23.452c-0.447 0-0.89-0.086-1.303-0.254s-0.789-0.414-1.105-0.725c-0.316-0.311-0.567-0.679-0.738-1.085s-0.259-0.841-0.258-1.28c-0-0.439 0.087-0.874 0.258-1.28s0.422-0.774 0.738-1.085c0.316-0.311 0.692-0.557 1.105-0.725s0.856-0.254 1.303-0.254h8.538c0.447-0 0.89 0.086 1.303 0.254s0.789 0.414 1.105 0.725c0.316 0.31 0.567 0.679 0.738 1.085s0.259 0.841 0.258 1.28c0 0.439-0.087 0.874-0.258 1.28s-0.422 0.774-0.738 1.085c-0.316 0.31-0.692 0.557-1.105 0.725s-0.856 0.254-1.303 0.254h-8.538z"></path>
</symbol>
<symbol id="invision-icon" viewBox="0 0 33 32">
<path fill="#f06" style="fill: var(--color25, #f06)" opacity="0.78" d="M0 2c0-1.105 0.895-2 2-2h28.5c1.105 0 2 0.895 2 2v27.912c0 1.105-0.895 2-2 2h-28.5c-1.105 0-2-0.895-2-2v-27.912z"></path>
<path fill="#fff" style="fill: var(--color2, #fff)" opacity="0.78" d="M11.059 10.269c1.028-0.015 1.851-0.842 1.841-1.852s-0.849-1.821-1.877-1.816-1.859 0.824-1.859 1.834c0.001 0.243 0.051 0.483 0.147 0.707s0.236 0.427 0.412 0.598 0.385 0.305 0.614 0.396c0.229 0.091 0.475 0.136 0.722 0.134v-0z"></path>
<path fill="#fff" style="fill: var(--color2, #fff)" opacity="0.78" d="M7.129 20.089c-0.108 0.452-0.164 0.914-0.168 1.377 0 1.615 0.892 2.687 2.787 2.687 1.572 0 2.847-0.916 3.764-2.397l-0.56 2.208h3.12l1.785-7.021c0.446-1.779 1.309-2.702 2.619-2.702 1.031 0 1.672 0.629 1.672 1.67 0.005 0.333-0.042 0.666-0.139 0.985l-0.919 3.228c-0.131 0.445-0.197 0.905-0.195 1.368 0 1.532 0.919 2.655 2.842 2.655 1.645 0 2.955-1.039 3.679-3.529l-1.226-0.466c-0.614 1.67-1.143 1.971-1.56 1.971s-0.642-0.273-0.642-0.821c0.012-0.287 0.059-0.572 0.139-0.849l0.893-3.146c0.201-0.647 0.304-1.319 0.307-1.995 0-2.354-1.45-3.582-3.206-3.582-1.645 0-3.316 1.456-4.152 2.989l0.612-2.752h-4.765l-0.669 2.425h2.231l-1.373 5.392c-1.079 2.354-3.060 2.392-3.309 2.337-0.408-0.091-0.668-0.243-0.668-0.766 0.012-0.424 0.077-0.844 0.195-1.252l2.090-8.143h-5.294l-0.668 2.425h2.201l-1.424 5.702z"></path>
</symbol>
<symbol id="toolbox" viewBox="0 0 32 32">
<path fill="#000001" style="fill: var(--color26, #000001)" opacity="0.78" d="M16 32.076l14-8.011v-16.008l-14 8.010v16.009z"></path>
<path fill="#fff" style="fill: var(--color2, #fff)" opacity="0.78" d="M19 24.556v2.444l6-3.556v-2.444l-6 3.556z"></path>
<path fill="#000" style="fill: var(--color11, #000)" opacity="0.78" d="M16 0.076l-14 7.981v16.008l14 8.011v-16.009l14-8.010-14-7.981z"></path>
</symbol>
<symbol id="icon-procreate" viewBox="0 0 32 32">
<path d="M0 11.581c0-4.054 0-6.081 0.789-7.629 0.694-1.362 1.801-2.469 3.163-3.163 1.548-0.789 3.575-0.789 7.629-0.789h8.838c4.054 0 6.081 0 7.629 0.789 1.362 0.694 2.469 1.801 3.163 3.163 0.789 1.548 0.789 3.575 0.789 7.629v8.838c0 4.054 0 6.081-0.789 7.629-0.694 1.362-1.801 2.469-3.163 3.163-1.548 0.789-3.575 0.789-7.629 0.789h-8.838c-4.054 0-6.081 0-7.629-0.789-1.362-0.694-2.469-1.801-3.163-3.163-0.789-1.548-0.789-3.575-0.789-7.629v-8.838z"></path>
<path d="M8.991 16.457c-4.457 3.28-5.333 8.076-5.333 12.076 0.203-1.194 1.135-3.992 3.238-5.638 3.124-2.445 8.838-1.639 15.086-5.79s6.857-9.562 6.057-13.714c-0.556 4.007-2.453 5.753-5.067 7.314-5.676 3.39-9.219 2.248-13.981 5.752z"></path>
<path d="M8.991 16.457c-4.457 3.28-5.333 8.076-5.333 12.076 0.203-1.194 1.135-3.992 3.238-5.638 3.124-2.445 8.838-1.639 15.086-5.79s6.857-9.562 6.057-13.714c-0.556 4.007-2.453 5.753-5.067 7.314-5.676 3.39-9.219 2.248-13.981 5.752z"></path>
<path d="M3.71 26.894c0.245-3.614 1.418-7.594 5.28-10.437 2.482-1.827 4.634-2.391 6.928-2.993 1.339-0.351 2.727-0.715 4.259-1.35-0.559 0.534-3.214 1.779-5.216 2.612-1.997 0.83-4.103 1.705-5.857 2.874-3.518 2.345-4.948 6.426-5.394 9.294z"></path>
<path d="M3.71 26.894c0.245-3.614 1.418-7.594 5.28-10.437 2.482-1.827 4.634-2.391 6.928-2.993 1.339-0.351 2.727-0.715 4.259-1.35-0.559 0.534-3.214 1.779-5.216 2.612-1.997 0.83-4.103 1.705-5.857 2.874-3.518 2.345-4.948 6.426-5.394 9.294z"></path>
<path d="M25.392 14.138c-0.438 0.429-0.927 0.813-1.468 1.138-2.438 1.463-5.030 1.935-7.551 2.394-2.009 0.366-3.974 0.724-5.782 1.568-4.076 1.905-6.59 5.866-6.933 9.295-0 0-0 0-0 0s-0-0.001-0-0.002c0-0.262 0.004-0.527 0.012-0.795 0.021-0.425 0.065-0.896 0.137-1.398 0.538-2.82 2.002-6.541 5.298-8.739 1.396-0.93 3.014-1.675 4.624-2.358 1.416-0.465 2.691-0.754 3.907-1.030 1.913-0.434 3.678-0.834 5.602-1.831 4.039-2.093 5.097-6.394 4.813-8.924 0.604 3.206 0.36 7.148-2.659 10.681z"></path>
<path d="M25.392 14.138c-0.438 0.429-0.926 0.813-1.468 1.138-2.438 1.463-5.030 1.935-7.551 2.394-2.009 0.366-3.974 0.724-5.782 1.568-2.344 1.095-4.172 2.871-5.367 4.834 1.054-1.482 2.661-3.137 4.643-3.768 1.934-0.615 3.779-0.679 5.695-0.745 0.549-0.019 1.105-0.038 1.669-0.070 1.522-0.554 3.118-1.3 4.75-2.384 1.407-0.935 2.527-1.933 3.411-2.967z"></path>
<path d="M25.392 14.138c-0.438 0.429-0.926 0.813-1.468 1.138-2.438 1.463-5.030 1.935-7.551 2.394-2.009 0.366-3.974 0.724-5.782 1.568-2.344 1.095-4.172 2.871-5.367 4.834 1.054-1.482 2.661-3.137 4.643-3.768 1.934-0.615 3.779-0.679 5.695-0.745 0.549-0.019 1.105-0.038 1.669-0.070 1.522-0.554 3.118-1.3 4.75-2.384 1.407-0.935 2.527-1.933 3.411-2.967z"></path>
<path d="M28.051 3.457c-0.004-0.022-0.008-0.045-0.013-0.067-0.556 4.007-2.453 5.753-5.067 7.314-0.99 0.591-1.916 1.045-2.794 1.409-0.559 0.534-3.214 1.779-5.216 2.612l-0 0c-0.408 0.169-0.82 0.341-1.232 0.516 1.416-0.465 2.691-0.754 3.907-1.030 1.913-0.434 3.678-0.834 5.602-1.831 4.039-2.093 5.097-6.394 4.813-8.924z"></path>
<path d="M28.051 3.457c-0.004-0.022-0.008-0.045-0.013-0.067-0.556 4.007-2.453 5.753-5.067 7.314-0.99 0.591-1.916 1.045-2.794 1.409-0.559 0.534-3.214 1.779-5.216 2.612l-0 0c-0.408 0.169-0.82 0.341-1.232 0.516 1.416-0.465 2.691-0.754 3.907-1.030 1.913-0.434 3.678-0.834 5.602-1.831 4.039-2.093 5.097-6.394 4.813-8.924z"></path>
</symbol>
<symbol id="folder" viewBox="0 0 32 32">
<path fill="#fff" style="fill: var(--color2, #fff)" opacity="0.38" d="M18.667 17.333h-1.333v-1.333c0-0.354-0.14-0.693-0.39-0.943s-0.589-0.39-0.943-0.39c-0.354 0-0.693 0.14-0.943 0.39s-0.39 0.589-0.39 0.943v1.333h-1.333c-0.354 0-0.693 0.14-0.943 0.39s-0.39 0.589-0.39 0.943c0 0.354 0.14 0.693 0.39 0.943s0.589 0.39 0.943 0.39h1.333v1.333c0 0.354 0.14 0.693 0.39 0.943s0.589 0.39 0.943 0.39c0.354 0 0.693-0.14 0.943-0.39s0.39-0.589 0.39-0.943v-1.333h1.333c0.354 0 0.693-0.14 0.943-0.39s0.39-0.589 0.39-0.943c0-0.354-0.14-0.693-0.39-0.943s-0.589-0.39-0.943-0.39z"></path>
<path fill="#fff" style="fill: var(--color2, #fff)" opacity="0.38" d="M26 9.4h-9.333l-3.507-4.24c-0.124-0.153-0.281-0.277-0.458-0.362s-0.372-0.13-0.569-0.132h-6.133c-0.871-0.011-1.711 0.324-2.336 0.932s-0.983 1.437-0.997 2.308v16.187c0.014 0.871 0.373 1.701 0.997 2.308s1.465 0.942 2.336 0.932h20c0.871 0.011 1.711-0.324 2.336-0.932s0.983-1.437 0.997-2.308v-11.453c-0.014-0.871-0.373-1.701-0.997-2.309s-1.465-0.942-2.336-0.932zM26.667 24.067c-0.005 0.082-0.026 0.162-0.063 0.235s-0.087 0.139-0.149 0.192c-0.062 0.053-0.134 0.094-0.212 0.119s-0.16 0.034-0.242 0.027h-20c-0.082 0.007-0.164-0.002-0.242-0.027s-0.15-0.066-0.212-0.119c-0.062-0.053-0.113-0.119-0.149-0.192s-0.058-0.153-0.063-0.235v-16.16c0.005-0.082 0.026-0.162 0.063-0.235s0.087-0.139 0.149-0.192c0.062-0.053 0.134-0.094 0.212-0.119s0.16-0.034 0.242-0.027h5.507l3.467 4.24c0.124 0.153 0.281 0.276 0.458 0.362s0.372 0.13 0.569 0.132h10c0.082-0.007 0.164 0.002 0.242 0.027s0.15 0.066 0.212 0.119 0.113 0.119 0.149 0.192c0.036 0.073 0.058 0.153 0.063 0.235v11.427z"></path>
</symbol>
</defs>
</svg>
